<svg width="200" height="417" viewBox="0 0 200 417" fill="none" xmlns="http://www.w3.org/2000/svg">
<path d="M15.8785 198.154C17.3975 222.673 26.108 246.051 47.076 260.392C66.8822 273.939 93.3965 278.175 116.966 278.447C148.998 278.816 172.802 260.336 187.182 232.742C191.64 224.188 195.153 215.168 198.187 206.022C199.335 202.561 203.025 189.411 194.726 195.284C191.581 197.512 188.526 203.618 185.993 206.609C182.96 210.192 179.767 213.651 176.372 216.896C169.787 223.194 162.653 227.923 155.101 231.232C138.755 238.393 120.453 238.889 101.527 234.185C87.1687 230.615 71.8465 224.375 60.6447 214.421C36.0248 192.548 15.6767 157.688 22.5204 123.742C16.8831 147.801 14.3505 173.481 15.8785 198.154" fill="url(#paint0_linear)"/>
<path d="M59.3979 220.864C70.2918 230.816 85.1921 237.058 99.1546 240.627C117.559 245.332 135.356 244.835 151.251 237.674C158.595 234.365 165.532 229.635 171.935 223.339C175.237 220.093 178.343 216.636 181.293 213.051C182.297 211.831 183.386 210.092 184.532 208.309C181.938 211.287 179.227 214.167 176.372 216.897C169.787 223.193 162.653 227.923 155.101 231.232C138.755 238.393 120.453 238.89 101.527 234.185C87.1689 230.616 71.8467 224.374 60.6448 214.422C39.6552 195.774 21.7722 167.688 21.1943 138.777C19.0351 169.913 37.4745 200.833 59.3979 220.864" fill="url(#paint1_linear)"/>
<path d="M15.4658 187.028C15.688 169.685 17.7049 152.157 21.2093 135.319C21.3194 131.461 21.744 127.596 22.5205 123.742C17.7258 144.205 15.1781 165.838 15.4658 187.028Z" fill="url(#paint2_linear)"/>
<path d="M184.532 208.309C185.023 207.745 185.511 207.179 185.993 206.609C186.92 205.515 187.917 204.003 188.963 202.417C187.435 203.857 185.941 206.115 184.532 208.309Z" fill="url(#paint3_linear)"/>
<path d="M21.2092 135.319C21.1758 136.472 21.1705 137.625 21.1934 138.777C21.392 135.911 21.7648 133.045 22.3264 130.184C21.9372 131.887 21.5663 133.6 21.2092 135.319" fill="url(#paint4_linear)"/>
<g opacity="0.669998">
<g opacity="0.669998">
<g opacity="0.669998">
<g opacity="0.669998">
<g opacity="0.669998">
<g opacity="0.669998">
<g opacity="0.669998">
<g opacity="0.669998">
<path opacity="0.669998" d="M118.919 274.128C95.3492 273.857 70.7653 269.652 50.9584 256.105C29.9911 241.763 21.2806 218.387 19.763 193.868C18.7748 177.919 19.4852 161.55 21.6325 145.469C20.8389 138.276 21.0591 130.988 22.521 123.742C16.883 147.801 14.3504 173.481 15.8785 198.154C17.3981 222.673 26.1086 246.051 47.076 260.392C66.8822 273.939 93.3965 278.175 116.966 278.447C140.996 278.724 160.395 268.392 174.661 251.562C160.831 265.84 140.835 274.381 118.919 274.128" fill="url(#paint5_linear)"/>
</g>
</g>
</g>
</g>
</g>
</g>
</g>
</g>
<path d="M104.974 173.845C102.141 176.53 98.6401 179.254 94.8697 182.149C88.5778 186.064 81.5309 192.057 79.1968 193.824C50.5785 215.477 34.9313 245.258 31.2736 284.275C26.572 334.446 50.0772 378.742 78.9577 414.933C81.3586 417.941 86.108 415.171 84.671 411.601C70.0656 375.329 63.6329 330.61 72.9594 294.752C79.5645 269.357 107.756 249.959 119.151 225.737C119.183 225.707 119.204 225.676 119.217 225.644C119.258 225.539 119.298 225.438 119.338 225.335C121.251 221.196 122.666 216.915 123.398 212.438C124.235 208.12 124.343 203.985 123.532 199.541C123.46 199.045 123.384 198.547 123.295 198.046C123.179 197.383 122.995 196.81 122.753 196.31C122.656 195.996 122.535 195.602 122.39 195.134C121.963 193.852 121.486 192.02 120.886 189.849C119.655 185.576 118.41 180.006 117.318 174.615C116.385 169.397 115.611 164.351 115.289 160.721C115.129 158.94 114.93 157.453 114.903 156.451C114.844 155.456 114.811 154.887 114.81 154.877C115.108 162.355 111.296 168.005 104.974 173.845" fill="url(#paint6_linear)"/>
<g opacity="0.720001">
<g opacity="0.720001">
<g opacity="0.720001">
<g opacity="0.720001">
<g opacity="0.720001">
<path opacity="0.720001" d="M38.4345 285.113C41.7252 247.155 54.7278 217.285 78.1511 194.625C50.1985 216.21 34.8868 245.736 31.2736 284.274C26.9134 330.801 46.8108 372.273 72.7556 406.915C50.4357 371.747 34.4852 330.672 38.4345 285.113" fill="url(#paint7_linear)"/>
</g>
</g>
</g>
</g>
<g opacity="0.720001">
<g opacity="0.720001">
<g opacity="0.720001">
<g opacity="0.720001">
<path opacity="0.720001" d="M115.432 162.161C115.378 161.66 115.331 161.179 115.289 160.721C115.13 158.94 114.93 157.453 114.903 156.451C114.844 155.447 114.811 154.877 114.811 154.877C114.98 159.142 113.811 162.812 111.604 166.262C111.783 166.083 111.961 165.904 112.135 165.726C113.326 164.535 114.43 163.352 115.432 162.161Z" fill="url(#paint8_linear)"/>
</g>
</g>
</g>
</g>
<g opacity="0.720001">
<g opacity="0.720001">
<g opacity="0.720001">
<g opacity="0.720001">
<path opacity="0.720001" d="M94.8697 182.149C98.6402 179.254 102.142 176.53 104.974 173.844C107.69 171.335 109.941 168.86 111.603 166.262C108.871 168.992 105.568 171.766 102.029 174.703C95.7373 178.935 88.6918 185.415 86.3564 187.325C83.4909 189.669 80.7571 192.103 78.1511 194.625C78.4984 194.357 78.845 194.088 79.1969 193.823C81.5316 192.057 88.5778 186.063 94.8697 182.149" fill="url(#paint9_linear)"/>
</g>
</g>
</g>
</g>
</g>
<path d="M113.056 123.004L113.013 123.257C113.013 123.257 113.061 122.831 113.198 122.118C113.345 121.417 113.553 120.424 113.799 119.245C114.05 118.084 114.446 116.812 114.79 115.426C115.009 114.77 115.234 114.098 115.461 113.42C115.677 112.743 115.899 112.063 116.182 111.43C116.44 110.787 116.696 110.15 116.946 109.528C117.209 108.921 117.511 108.36 117.772 107.801C118.266 106.678 118.858 105.747 119.317 104.929C119.748 104.102 120.214 103.507 120.501 103.065C120.792 102.631 120.957 102.385 120.957 102.385L121.062 102.238C121.062 102.238 120.897 102.484 120.607 102.917C120.46 103.133 120.281 103.397 120.073 103.701C119.855 103.998 119.633 104.355 119.414 104.767C118.97 105.593 118.352 106.501 117.863 107.624C117.595 108.176 117.314 108.75 117.028 109.338C116.778 109.959 116.523 110.595 116.266 111.236L115.869 112.202C115.758 112.539 115.646 112.877 115.535 113.214C115.309 113.889 115.085 114.559 114.865 115.213C114.492 116.577 114.136 117.871 113.852 119.008C113.608 120.185 113.402 121.176 113.256 121.876C113.175 122.225 113.124 122.505 113.101 122.704C113.071 122.9 113.056 123.004 113.056 123.004Z" fill="#398DD7"/>
<path d="M16.4318 199.877L16.5045 200.79C16.5045 200.79 16.4036 199.297 16.228 196.71C16.0058 194.157 15.9272 190.546 15.8263 186.296C15.517 178.058 15.8866 167.587 16.6427 157.721C17.5451 148.417 18.8235 139.673 20.1956 133.517C20.8627 130.54 21.3102 128.085 21.8043 126.434C22.2473 124.793 22.4969 123.864 22.4969 123.864L22.6418 123.298C22.6418 123.298 22.3921 124.223 21.9504 125.856C21.4629 127.501 20.9597 129.932 20.3188 132.902C18.9106 139.023 17.6401 147.73 16.6952 156.99C15.9069 166.81 15.5308 177.236 15.7942 185.441C15.9226 189.672 15.9298 193.272 16.1578 195.815C16.3308 198.391 16.4318 199.877 16.4318 199.877Z" fill="#398DD7"/>
<path d="M5.7336 2.28403C-2.86094 29.407 -1.61922 59.5593 8.29045 80.8766C20.6292 107.424 45.5872 129.039 66.1136 143.385C68.9287 145.351 71.7234 147.372 74.469 149.495C79.9418 153.763 85.3517 157.793 90.5781 161.687C95.6552 165.537 100.61 169.256 104.836 172.923C113.447 180.27 119.876 187.493 122.908 196.81C122.901 196.795 122.675 196.057 122.279 194.779C121.848 193.501 121.403 191.669 120.791 189.502C119.578 185.235 118.333 179.677 117.256 174.295C116.342 169.09 115.564 164.054 115.261 160.433C115.088 158.651 114.916 157.175 114.887 156.174C114.829 155.18 114.795 154.612 114.794 154.603C113.011 124.419 62.8543 105.025 46.9371 89.0354C16.5593 58.5188 10.1062 34.0123 11.156 3.20534C11.2182 1.3791 9.78383 0.339171 8.35141 0.339171C7.25317 0.339171 6.15625 0.94924 5.7336 2.28403V2.28403ZM122.908 196.811V196.81C122.908 196.811 122.908 196.811 122.908 196.811Z" fill="url(#paint10_linear)"/>
<path d="M122.908 196.81L123.042 197.265C123.042 197.265 122.813 196.523 122.413 195.23C121.987 193.948 121.502 192.117 120.906 189.942C119.672 185.667 118.422 180.094 117.329 174.701C116.389 169.48 115.617 164.431 115.29 160.798C114.894 157.233 114.809 154.949 114.809 154.949L114.794 154.603C114.794 154.603 114.828 155.172 114.887 156.174C114.917 157.176 115.088 158.652 115.261 160.433C115.564 164.053 116.341 169.09 117.256 174.296C118.333 179.677 119.578 185.235 120.791 189.502C121.403 191.668 121.848 193.501 122.28 194.779C122.679 196.07 122.908 196.81 122.908 196.81Z" fill="#FF8D08"/>
<path d="M114.395 151.264C109.309 122.974 62.2595 104.428 46.9379 89.0356C32.5501 74.5823 23.5297 61.4769 18.1316 48.4121C22.8115 64.6228 32.3962 80.4254 50.1757 98.2861C63.7621 111.934 102.291 128.063 114.395 151.264" fill="url(#paint11_linear)"/>
<g opacity="0.429993">
<g opacity="0.429993">
<g opacity="0.429993">
<g opacity="0.429993">
<g opacity="0.429993">
<g opacity="0.429993">
<g opacity="0.429993">
<g opacity="0.429993">
<path opacity="0.429993" d="M122.28 194.779C121.848 193.501 121.403 191.669 120.79 189.502C120.135 187.193 119.469 184.507 118.826 181.674C115.34 175.027 109.946 169.363 103.218 163.622C98.9907 159.955 94.0381 156.236 88.9597 152.387C83.7339 148.492 78.3227 144.462 72.8506 140.194C70.105 138.071 67.3095 136.05 64.4945 134.083C43.9681 119.739 19.0102 98.1221 6.67141 71.5758C6.28545 70.7455 5.91386 69.9009 5.55412 69.0451C5.04104 67.2529 4.57778 65.4214 4.16431 63.5585C4.8222 68.6879 5.82804 73.6469 7.17462 78.3459C7.53305 79.2017 7.90394 80.0464 8.29055 80.8766C20.6293 107.424 45.5873 129.039 66.1131 143.385C68.9288 145.351 71.7241 147.372 74.4691 149.495C79.9419 153.762 85.3518 157.793 90.5782 161.687C95.6566 165.536 100.61 169.256 104.837 172.923C113.448 180.27 119.876 187.493 122.908 196.811C122.908 196.811 122.679 196.07 122.28 194.779Z" fill="url(#paint12_linear)"/>
</g>
</g>
</g>
</g>
</g>
</g>
</g>
</g>
<path d="M65.1837 48.0316C58.2332 56.535 52.9806 73.5807 64.1012 81.571C73.5299 88.3459 88.2532 83.4038 95.8445 76.0969C105.331 66.965 105.37 52.0485 95.7482 42.8537C92.4155 39.6684 88.4406 38.346 84.3936 38.3466C77.1136 38.3466 69.6022 42.6249 65.1837 48.0316Z" fill="url(#paint13_linear)"/>
<path d="M99.4107 47.3147C102.44 55.5856 100.504 65.1454 93.681 71.7125C86.089 79.0201 71.3657 83.9622 61.9383 77.1873C60.5308 76.1762 59.3867 75.0197 58.4739 73.755C59.4057 76.7699 61.1926 79.4807 64.1014 81.5711C73.5301 88.3459 88.2527 83.4039 95.8447 76.0963C103.916 68.328 105.147 56.3719 99.4107 47.3147" fill="url(#paint14_linear)"/>
<path d="M65.1838 48.0318C60.0517 54.3113 55.8475 65.2459 58.4738 73.7552C59.386 75.0206 60.5301 76.1765 61.9382 77.1882C71.3656 83.9624 86.089 79.0204 93.6803 71.7128C100.503 65.1457 102.44 55.5858 99.41 47.315C98.4041 45.7259 97.1847 44.2268 95.7483 42.854C92.4163 39.6693 88.4401 38.3469 84.3938 38.3469C77.113 38.3469 69.603 42.6245 65.1838 48.0318" fill="url(#paint15_linear)"/>
<path d="M67.0448 51.2283C73.1231 43.7917 84.4993 38.2919 94.0787 41.4509C84.781 34.6093 71.6612 40.107 65.1838 48.0318C60.0517 54.3113 55.8475 65.2459 58.4738 73.7552C58.5675 73.8843 58.6632 74.012 58.7622 74.1392C58.5047 65.9063 62.4363 56.8669 67.0448 51.2283" fill="url(#paint16_linear)"/>
<path d="M164.34 42.365C153.597 73.8134 138.486 85.7453 131.911 88.9555C86.9216 110.921 52.3882 92.3255 30.0919 112.212C30.0919 112.219 30.0985 112.22 30.0998 112.223C26.8097 115.126 24.2168 118.772 22.6408 123.299C22.6408 123.299 22.3912 124.222 21.9515 125.856C21.4627 127.502 20.9595 129.933 20.3186 132.903C18.9104 139.023 17.6379 147.731 16.6949 156.991C15.9066 166.811 15.5305 177.236 15.7939 185.442C15.9217 189.673 15.9295 193.273 16.1576 195.815C16.3148 198.15 16.4105 199.59 16.4289 199.838C15.5253 181.347 24.1565 167.64 35.7875 158.243C41.2571 153.92 47.1703 150.44 53.453 147.626C58.1873 145.439 63.1144 143.642 67.9083 142.089C67.9149 142.089 67.9162 142.082 67.9201 142.082C86.0324 136.797 105.472 134.708 122.878 125.861C165.54 104.177 170.035 67.6709 169.744 43.2195C169.722 41.4633 168.332 40.4773 166.941 40.4773C165.86 40.4773 164.78 41.0716 164.34 42.3618" fill="url(#paint17_linear)"/>
<path d="M26.8046 116.049C49.1002 96.1613 83.6343 114.757 128.623 92.792C131.862 91.2095 137.175 87.5105 143.016 80.4028C138.45 85.2157 134.425 87.9174 131.782 89.2083C86.7928 111.174 52.2606 92.577 29.9643 112.465C29.9643 112.472 29.9709 112.472 29.9709 112.476C28.5247 113.751 27.2141 115.171 26.0635 116.746C26.3092 116.513 26.5575 116.283 26.8124 116.059C26.8124 116.052 26.8059 116.052 26.8046 116.049" fill="url(#paint18_linear)"/>
<path d="M15.783 185.039C15.783 185.173 15.7908 185.309 15.7941 185.442C15.9219 189.673 15.9297 193.273 16.1577 195.815C16.315 198.15 16.4107 199.59 16.429 199.838C15.7724 186.402 20.1503 175.492 27.0549 166.926C22.1842 171.992 18.2068 178.013 15.783 185.039Z" fill="url(#paint19_linear)"/>
<path d="M125.496 122.84C108.091 131.687 90.2291 132.407 70.5376 139.06C70.531 139.06 70.5304 139.06 70.5265 139.067C65.7331 140.621 60.8061 142.416 56.0705 144.603C49.7877 147.418 43.8765 150.897 38.405 155.221C35.2263 157.79 32.271 160.682 29.6729 163.904C31.4264 162.082 33.2933 160.382 35.2467 158.805C40.7162 154.481 46.6293 151.001 52.9108 148.186C57.6457 146 62.5734 144.204 67.3661 142.65C67.3726 142.65 67.3752 142.643 67.3778 142.643C85.4902 137.359 104.931 135.269 122.337 126.422C134.799 120.088 144.003 112.489 150.784 104.295C144.379 111.118 136.121 117.438 125.496 122.839" fill="url(#paint20_linear)"/>
<g opacity="0.520004">
<g opacity="0.520004">
<g opacity="0.520004">
<g opacity="0.520004">
<g opacity="0.520004">
<path opacity="0.520004" d="M123.398 201.641C122.666 206.118 121.251 210.399 119.34 214.538C119.298 214.642 119.258 214.744 119.217 214.846C119.205 214.88 119.183 214.911 119.152 214.941C107.756 239.162 79.5645 258.561 72.9594 283.956C69.5447 297.084 68.2453 311.401 68.6831 326.055C69.0186 315.189 70.3894 304.634 72.9594 294.753C79.5645 269.358 107.756 249.958 119.152 225.738C119.183 225.707 119.205 225.677 119.217 225.644C119.258 225.54 119.298 225.438 119.34 225.335C121.251 221.197 122.666 216.914 123.398 212.438C124.192 208.341 124.329 204.407 123.647 200.221C123.573 200.693 123.491 201.166 123.398 201.641Z" fill="url(#paint21_linear)"/>
</g>
</g>
</g>
</g>
</g>
<defs>
<linearGradient id="paint0_linear" x1="174.909" y1="255.483" x2="54.8391" y2="190.606" gradientUnits="userSpaceOnUse">
<stop stop-color="#04AAAA"/>
<stop offset="0.0416932" stop-color="#04AAAA"/>
<stop offset="1" stop-color="#048D7C"/>
</linearGradient>
<linearGradient id="paint1_linear" x1="179.654" y1="246.906" x2="59.5833" y2="182.029" gradientUnits="userSpaceOnUse">
<stop stop-color="#04AAAA"/>
<stop offset="0.0416932" stop-color="#04AAAA"/>
<stop offset="1" stop-color="#048D7C"/>
</linearGradient>
<linearGradient id="paint2_linear" x1="181.63" y1="243.262" x2="61.5555" y2="178.383" gradientUnits="userSpaceOnUse">
<stop stop-color="#04AAAA"/>
<stop offset="0.0416932" stop-color="#04AAAA"/>
<stop offset="1" stop-color="#048D7C"/>
</linearGradient>
<linearGradient id="paint3_linear" x1="198.633" y1="211.785" x2="78.5386" y2="146.895" gradientUnits="userSpaceOnUse">
<stop stop-color="#04AAAA"/>
<stop offset="0.0416932" stop-color="#04AAAA"/>
<stop offset="1" stop-color="#048D7C"/>
</linearGradient>
<linearGradient id="paint4_linear" x1="190.965" y1="225.907" x2="70.9131" y2="161.041" gradientUnits="userSpaceOnUse">
<stop stop-color="#04AAAA"/>
<stop offset="0.0416932" stop-color="#04AAAA"/>
<stop offset="1" stop-color="#048D7C"/>
</linearGradient>
<linearGradient id="paint5_linear" x1="169.754" y1="265.229" x2="49.683" y2="200.352" gradientUnits="userSpaceOnUse">
<stop stop-color="#04AAAA"/>
<stop offset="0.0416932" stop-color="#04AAAA"/>
<stop offset="1" stop-color="#048D7C"/>
</linearGradient>
<linearGradient id="paint6_linear" x1="30.6722" y1="285.545" x2="124.086" y2="285.545" gradientUnits="userSpaceOnUse">
<stop stop-color="#64870F"/>
<stop offset="1" stop-color="#7EB315"/>
</linearGradient>
<linearGradient id="paint7_linear" x1="61.0599" y1="218.726" x2="50.2633" y2="369.88" gradientUnits="userSpaceOnUse">
<stop stop-color="#8DAF22"/>
<stop offset="1" stop-color="#A4C715"/>
</linearGradient>
<linearGradient id="paint8_linear" x1="-275.909" y1="160.569" x2="-275.856" y2="160.569" gradientUnits="userSpaceOnUse">
<stop stop-color="#64870F"/>
<stop offset="1" stop-color="#7EB315"/>
</linearGradient>
<linearGradient id="paint9_linear" x1="-275.896" y1="180.443" x2="-275.843" y2="180.443" gradientUnits="userSpaceOnUse">
<stop stop-color="#64870F"/>
<stop offset="1" stop-color="#7EB315"/>
</linearGradient>
<linearGradient id="paint10_linear" x1="37.4777" y1="48.6503" x2="61.7212" y2="117.052" gradientUnits="userSpaceOnUse">
<stop stop-color="#8DAF22"/>
<stop offset="1" stop-color="#A4C715"/>
</linearGradient>
<linearGradient id="paint11_linear" x1="66.974" y1="122.684" x2="69.8749" y2="215.871" gradientUnits="userSpaceOnUse">
<stop stop-color="#8DAF22"/>
<stop offset="1" stop-color="#A4C715"/>
</linearGradient>
<linearGradient id="paint12_linear" x1="45.7557" y1="69.1748" x2="58.8092" y2="115.225" gradientUnits="userSpaceOnUse">
<stop stop-color="#8DAF22"/>
<stop offset="1" stop-color="#A4C715"/>
</linearGradient>
<linearGradient id="paint13_linear" x1="83.4259" y1="31.6292" x2="80.6635" y2="60.1739" gradientUnits="userSpaceOnUse">
<stop stop-color="#8DAF22"/>
<stop offset="1" stop-color="#A4C715"/>
</linearGradient>
<linearGradient id="paint14_linear" x1="84.1524" y1="31.7" x2="81.3901" y2="60.2445" gradientUnits="userSpaceOnUse">
<stop stop-color="#8DAF22"/>
<stop offset="1" stop-color="#A4C715"/>
</linearGradient>
<linearGradient id="paint15_linear" x1="82.1449" y1="31.5056" x2="79.3826" y2="60.0503" gradientUnits="userSpaceOnUse">
<stop stop-color="#8DAF22"/>
<stop offset="1" stop-color="#A4C715"/>
</linearGradient>
<linearGradient id="paint16_linear" x1="78.5077" y1="26.9789" x2="75.7453" y2="55.5238" gradientUnits="userSpaceOnUse">
<stop stop-color="#8DAF22"/>
<stop offset="1" stop-color="#A4C715"/>
</linearGradient>
<linearGradient id="paint17_linear" x1="33.2893" y1="150.025" x2="141.894" y2="90.7034" gradientUnits="userSpaceOnUse">
<stop stop-color="#04AAAA"/>
<stop offset="0.0416932" stop-color="#04AAAA"/>
<stop offset="1" stop-color="#4ACFD4"/>
</linearGradient>
<linearGradient id="paint18_linear" x1="23.5007" y1="132.594" x2="132.106" y2="73.2715" gradientUnits="userSpaceOnUse">
<stop stop-color="#04AAAA"/>
<stop offset="0.0416932" stop-color="#04AAAA"/>
<stop offset="1" stop-color="#4ACFD4"/>
</linearGradient>
<linearGradient id="paint19_linear" x1="44.6683" y1="170.859" x2="153.27" y2="111.539" gradientUnits="userSpaceOnUse">
<stop stop-color="#04AAAA"/>
<stop offset="0.0416932" stop-color="#04AAAA"/>
<stop offset="1" stop-color="#4ACFD4"/>
</linearGradient>
<linearGradient id="paint20_linear" x1="39.324" y1="162.625" x2="147.929" y2="103.302" gradientUnits="userSpaceOnUse">
<stop stop-color="#04AAAA"/>
<stop offset="0.0416932" stop-color="#04AAAA"/>
<stop offset="1" stop-color="#048D7C"/>
</linearGradient>
<linearGradient id="paint21_linear" x1="68.6013" y1="263.138" x2="124.085" y2="263.138" gradientUnits="userSpaceOnUse">
<stop stop-color="#64870F"/>
<stop offset="1" stop-color="#7EB315"/>
</linearGradient>
</defs>
</svg>
